<?xml version="1.0" encoding="utf-8"?>
<!-- Generator: Adobe Illustrator 28.1.0, SVG Export Plug-In . SVG Version: 6.00 Build 0)  -->
<svg version="1.1" id="Layer_1" xmlns="http://www.w3.org/2000/svg" xmlns:xlink="http://www.w3.org/1999/xlink" x="0px" y="0px"
	 viewBox="0 0 1228 1073" style="enable-background:new 0 0 1228 1073;" xml:space="preserve">
<style type="text/css">
	.st0{fill:none;stroke:#5E4FA2;stroke-width:47.8261;}
	.st1{fill:none;stroke:#5E4FA2;stroke-width:43.8406;}
	.st2{fill:none;stroke:#4478B2;stroke-width:7.971;}
	.st3{fill:none;stroke:#4BA0B1;stroke-width:3.9855;}
	.st4{fill:none;stroke:#4F63AB;stroke-width:59.7826;}
	.st5{fill:none;stroke:#5E4FA2;stroke-width:19.9275;}
	.st6{fill:none;stroke:#5E4FA2;stroke-width:7.971;}
	.st7{fill:none;stroke:#4F63AB;stroke-width:15.942;}
	.st8{fill:none;stroke:#4F63AB;stroke-width:3.9855;}
	.st9{fill:none;stroke:#5E4FA2;stroke-width:11.9565;}
	.st10{fill:none;stroke:#5E4FA2;stroke-width:67.7536;}
	.st11{fill:none;stroke:#438CB4;stroke-width:23.913;}
	.st12{fill:none;stroke:#4F63AB;stroke-width:39.8551;}
	.st13{fill:none;stroke:#4F63AB;stroke-width:7.971;}
	.st14{fill:none;stroke:#5CB3AC;stroke-width:3.9855;}
	.st15{fill:none;stroke:#4BA0B1;stroke-width:7.971;}
	.st16{fill:none;stroke:#5CB3AC;stroke-width:7.971;}
	.st17{fill:none;stroke:#4478B2;stroke-width:3.9855;}
	.st18{fill:none;stroke:#438CB4;stroke-width:15.942;}
	.st19{fill:none;stroke:#4478B2;stroke-width:11.9565;}
	.st20{fill:none;stroke:#438CB4;stroke-width:7.971;}
	.st21{fill:none;stroke:#4F63AB;stroke-width:11.9565;}
	.st22{fill:none;stroke:#438CB4;stroke-width:3.9855;}
	.st23{fill:none;stroke:#5E4FA2;stroke-width:15.942;}
	.st24{fill:none;stroke:#5E4FA2;stroke-width:27.8986;}
	.st25{fill:none;stroke:#4F63AB;stroke-width:27.8986;}
	.st26{fill:none;stroke:#5E4FA2;stroke-width:3.9855;}
	.st27{fill:none;stroke:#CCEA9F;stroke-width:3.9855;}
	.st28{fill:none;stroke:#72C3A7;stroke-width:3.9855;}
	.st29{fill:none;stroke:#FDF2A8;stroke-width:3.9855;}
	.st30{fill:none;stroke:#EC6449;stroke-width:3.9855;}
	.st31{fill:none;stroke:#72C3A7;stroke-width:7.971;}
	.st32{fill:none;stroke:#E35F98;stroke-width:11.9565;}
	.st33{fill:none;stroke:#CCEA9F;stroke-width:7.971;}
	.st34{fill:none;stroke:#FF709C;stroke-width:7.971;}
	.st35{fill:none;stroke:#72C3A7;stroke-width:27.8986;}
	.st36{fill:none;stroke:#FDCA79;stroke-width:3.9855;}
	.st37{fill:none;stroke:#FBF8B0;stroke-width:15.942;}
	.st38{fill:none;stroke:#F3784C;stroke-width:3.9855;}
	.st39{fill:none;stroke:#FBF8B0;stroke-width:11.9565;}
	.st40{fill:none;stroke:#89CFA5;stroke-width:3.9855;}
	.st41{fill:none;stroke:#A0D9A3;stroke-width:3.9855;}
	.st42{fill:none;stroke:#DDF1A0;stroke-width:7.971;}
	.st43{fill:none;stroke:#FEE89A;stroke-width:3.9855;}
	.st44{fill:none;stroke:#72C3A7;stroke-width:19.9275;}
	.st45{fill:none;stroke:#FBF8B0;stroke-width:19.9275;}
	.st46{fill:none;stroke:#FEDA89;stroke-width:3.9855;}
	.st47{fill:none;stroke:#FBF8B0;stroke-width:7.971;}
	.st48{fill:none;stroke:#CCEA9F;stroke-width:15.942;}
	.st49{fill:none;stroke:#FBF8B0;stroke-width:3.9855;}
	.st50{fill:none;stroke:#D43F4B;stroke-width:3.9855;}
	.st51{fill:none;stroke:#FDB76B;stroke-width:7.971;}
	.st52{fill:none;stroke:#F88E53;stroke-width:3.9855;}
	.st53{fill:none;stroke:#FDB76B;stroke-width:3.9855;}
	.st54{fill:none;stroke:#F5FAAD;stroke-width:3.9855;}
	.st55{fill:none;stroke:#F88E53;stroke-width:7.971;}
	.st56{fill:none;stroke:#E35F98;stroke-width:3.9855;}
	.st57{fill:none;stroke:#F27A7A;stroke-width:3.9855;}
	.st58{fill:none;stroke:#FEE89A;stroke-width:15.942;}
	.st59{fill:none;stroke:#E1524A;stroke-width:3.9855;}
	.st60{fill:none;stroke:#FF709C;stroke-width:3.9855;}
	.st61{fill:none;stroke:#CCEA9F;stroke-width:11.9565;}
	.st62{fill:none;stroke:#EBF7A6;stroke-width:7.971;}
	.st63{fill:none;stroke:#FDB76B;stroke-width:11.9565;}
	.st64{fill:none;stroke:#DDF1A0;stroke-width:3.9855;}
	.st65{fill:none;stroke:#EBF7A6;stroke-width:3.9855;}
	.st66{fill:none;stroke:#FBA35E;stroke-width:3.9855;}
	.st67{fill:none;stroke:#B7E2A1;stroke-width:3.9855;}
	.st68{font-family:'Arial-BoldMT';}
	.st69{font-size:10px;}
	.st70{fill:#7B7B7B;}
	.st71{font-size:12px;}
</style>
<g id="Layer_2_00000026869940803337215900000017261117003675284388_">
	<g>
		<g>
			<path class="st0" d="M260,833.5c192.5,0,192.5-130.9,385-130.9"/>
		</g>
		<g>
			<path class="st1" d="M260,879.3c192.5,0,192.5-50.2,385-50.2"/>
		</g>
		<g>
			<path class="st2" d="M260,244.6c192.5,0,192.5,394.2,385,394.2"/>
		</g>
		<g>
			<path class="st3" d="M260,161.9c192.5,0,192.5-56.4,385-56.4"/>
		</g>
		<g>
			<path class="st4" d="M260,563.5c192.5,0,192.5,213.9,385,213.9"/>
		</g>
		<g>
			<path class="st5" d="M260,727.9c192.5,0,192.5-339.2,385-339.2"/>
		</g>
		<g>
			<path class="st6" d="M260,706c192.5,0,192.5-385.1,385-385.1"/>
		</g>
		<g>
			<path class="st7" d="M260,457.8c192.5,0,192.5-30.3,385-30.3"/>
		</g>
		<g>
			<path class="st8" d="M260,360.2c192.5,0,192.5-250.8,385-250.8"/>
		</g>
		<g>
			<path class="st9" d="M260,656.1c192.5,0,192.5-482.9,385-482.9"/>
		</g>
		<g>
			<path class="st10" d="M260,935.1c192.5,0,192.5,42.5,385,42.5"/>
		</g>
		<g>
			<path class="st6" d="M260,646.2c192.5,0,192.5-525.8,385-525.8"/>
		</g>
		<g>
			<path class="st11" d="M260,337.3c192.5,0,192.5,554.7,385,554.7"/>
		</g>
		<g>
			<path class="st8" d="M260,408c192.5,0,192.5-171.9,385-171.9"/>
		</g>
		<g>
			<path class="st12" d="M260,613.3c192.5,0,192.5,310.5,385,310.5"/>
		</g>
		<g>
			<path class="st13" d="M260,414c192.5,0,192.5-158.9,385-158.9"/>
		</g>
		<g>
			<path class="st7" d="M260,473.8c192.5,0,192.5-13.4,385-13.4"/>
		</g>
		<g>
			<path class="st13" d="M260,485.7c192.5,0,192.5,31.5,385,31.5"/>
		</g>
		<g>
			<path class="st14" d="M260,144.9c192.5,0,192.5,588.6,385,588.6"/>
		</g>
		<g>
			<path class="st9" d="M260,688c192.5,0,192.5-423,385-423"/>
		</g>
		<g>
			<path class="st6" d="M260,698c192.5,0,192.5-406.1,385-406.1"/>
		</g>
		<g>
			<path class="st15" d="M260,199.7c192.5,0,192.5,668.3,385,668.3"/>
		</g>
		<g>
			<path class="st16" d="M260,150.9c192.5,0,192.5,709.2,385,709.2"/>
		</g>
		<g>
			<path class="st14" d="M260,121c192.5,0,192.5-42.5,385-42.5"/>
		</g>
		<g>
			<path class="st15" d="M260,187.8c192.5,0,192.5,366.3,385,366.3"/>
		</g>
		<g>
			<path class="st17" d="M260,210.7c192.5,0,192.5-24.5,385-24.5"/>
		</g>
		<g>
			<path class="st18" d="M260,309.4c192.5,0,192.5,260.7,385,260.7"/>
		</g>
		<g>
			<path class="st19" d="M260,254.5c192.5,0,192.5,486.9,385,486.9"/>
		</g>
		<g>
			<path class="st6" d="M260,678.1c192.5,0,192.5-436,385-436"/>
		</g>
		<g>
			<path class="st20" d="M260,321.3c192.5,0,192.5,325.5,385,325.5"/>
		</g>
		<g>
			<path class="st8" d="M260,392.1c192.5,0,192.5-201.8,385-201.8"/>
		</g>
		<g>
			<path class="st13" d="M260,445.9c192.5,0,192.5-71.2,385-71.2"/>
		</g>
		<g>
			<path class="st21" d="M260,368.2c192.5,0,192.5-232.8,385-232.8"/>
		</g>
		<g>
			<path class="st6" d="M260,666.1c192.5,0,192.5-469.9,385-469.9"/>
		</g>
		<g>
			<path class="st21" d="M260,431.9c192.5,0,192.5-121.1,385-121.1"/>
		</g>
		<g>
			<path class="st16" d="M260,134.9c192.5,0,192.5,411.2,385,411.2"/>
		</g>
		<g>
			<path class="st3" d="M260,193.7c192.5,0,192.5,439.1,385,439.1"/>
		</g>
		<g>
			<path class="st21" d="M260,380.1c192.5,0,192.5-227.8,385-227.8"/>
		</g>
		<g>
			<path class="st22" d="M260,275.5c192.5,0,192.5,2.5,385,2.5"/>
		</g>
		<g>
			<path class="st23" d="M260,773.7c192.5,0,192.5-244.5,385-244.5"/>
		</g>
		<g>
			<path class="st15" d="M260,179.8c192.5,0,192.5,317.5,385,317.5"/>
		</g>
		<g>
			<path class="st24" d="M260,795.6c192.5,0,192.5-187.7,385-187.7"/>
		</g>
		<g>
			<path class="st17" d="M260,214.7c192.5,0,192.5,17.4,385,17.4"/>
		</g>
		<g>
			<path class="st21" d="M260,400.1c192.5,0,192.5-188.9,385-188.9"/>
		</g>
		<g>
			<path class="st14" d="M260,140.9c192.5,0,192.5,487.9,385,487.9"/>
		</g>
		<g>
			<path class="st8" d="M260,388.1c192.5,0,192.5-222.8,385-222.8"/>
		</g>
		<g>
			<path class="st7" d="M260,497.7c192.5,0,192.5,88.3,385,88.3"/>
		</g>
		<g>
			<path class="st3" d="M260,173.8c192.5,0,192.5,231.8,385,231.8"/>
		</g>
		<g>
			<path class="st25" d="M260,519.6c192.5,0,192.5,145.1,385,145.1"/>
		</g>
		<g>
			<path class="st2" d="M260,232.6c192.5,0,192.5,272.6,385,272.6"/>
		</g>
		<g>
			<path class="st26" d="M260,672.1c192.5,0,192.5-452.9,385-452.9"/>
		</g>
		<g>
			<path class="st17" d="M260,218.7c192.5,0,192.5,125.1,385,125.1"/>
		</g>
		<g>
			<path class="st22" d="M260,283.5c192.5,0,192.5,85.3,385,85.3"/>
		</g>
		<g>
			<path class="st6" d="M260,741.8c192.5,0,192.5-302.4,385-302.4"/>
		</g>
		<g>
			<path class="st5" d="M260,755.8c192.5,0,192.5-277.4,385-277.4"/>
		</g>
		<g>
			<path class="st22" d="M260,295.4c192.5,0,192.5,155,385,155"/>
		</g>
		<g>
			<path class="st20" d="M260,289.4c192.5,0,192.5,126.1,385,126.1"/>
		</g>
		<g>
			<path class="st13" d="M260,422c192.5,0,192.5-138,385-138"/>
		</g>
		<g>
			<path class="st17" d="M260,238.6c192.5,0,192.5,321.5,385,321.5"/>
		</g>
		<g>
			<path class="st22" d="M260,299.4c192.5,0,192.5,211.8,385,211.8"/>
		</g>
		<g>
			<path class="st8" d="M260,439.9c192.5,0,192.5-92.1,385-92.1"/>
		</g>
		<g>
			<path class="st8" d="M260,356.2c192.5,0,192.5-268.7,385-268.7"/>
		</g>
		<g>
			<path class="st26" d="M260,640.2c192.5,0,192.5-543.7,385-543.7"/>
		</g>
		<g>
			<path class="st6" d="M260,713.9c192.5,0,192.5-360.2,385-360.2"/>
		</g>
		<g>
			<path class="st3" d="M260,169.8c192.5,0,192.5,170,385,170"/>
		</g>
		<g>
			<path class="st17" d="M260,226.6c192.5,0,192.5,182.9,385,182.9"/>
		</g>
		<g>
			<path class="st16" d="M260,127c192.5,0,192.5,206.8,385,206.8"/>
		</g>
		<g>
			<path class="st2" d="M260,264.5c192.5,0,192.5,611.5,385,611.5"/>
		</g>
		<g>
			<path class="st3" d="M260,165.8c192.5,0,192.5,62.3,385,62.3"/>
		</g>
		<g>
			<path class="st22" d="M260,279.5c192.5,0,192.5,23.4,385,23.4"/>
		</g>
		<g>
			<path class="st17" d="M260,222.7c192.5,0,192.5,142.1,385,142.1"/>
		</g>
		<g>
			<path class="st27" d="M650,664.7c192.5,0,192.5-39.3,385-39.3"/>
		</g>
		<g>
			<path class="st28" d="M650,733.5c192.5,0,192.5-638.6,385-638.6"/>
		</g>
		<g>
			<path class="st27" d="M650,712.6c192.5,0,192.5,209.9,385,209.9"/>
		</g>
		<g>
			<path class="st29" d="M650,105.4c192.5,0,192.5,165,385,165"/>
		</g>
		<g>
			<path class="st28" d="M650,749.4c192.5,0,192.5-450,385-450"/>
		</g>
		<g>
			<path class="st30" d="M650,392.6c192.5,0,192.5,220.8,385,220.8"/>
		</g>
		<g>
			<path class="st31" d="M650,739.5c192.5,0,192.5-547.8,385-547.8"/>
		</g>
		<g>
			<path class="st32" d="M650,318.9c192.5,0,192.5,660.4,385,660.4"/>
		</g>
		<g>
			<path class="st33" d="M650,650.8c192.5,0,192.5-178.9,385-178.9"/>
		</g>
		<g>
			<path class="st34" d="M650,439.5c192.5,0,192.5,557.7,385,557.7"/>
		</g>
		<g>
			<path class="st35" d="M650,825.2c192.5,0,192.5,32.5,385,32.5"/>
		</g>
		<g>
			<path class="st31" d="M650,803.2c192.5,0,192.5-41.3,385-41.3"/>
		</g>
		<g>
			<path class="st28" d="M650,777.3c192.5,0,192.5-147.9,385-147.9"/>
		</g>
		<g>
			<path class="st29" d="M650,109.4c192.5,0,192.5,389.4,385,389.4"/>
		</g>
		<g>
			<path class="st36" d="M650,177.3c192.5,0,192.5,709.3,385,709.3"/>
		</g>
		<g>
			<path class="st37" d="M650,987.6c192.5,0,192.5-51.2,385-51.2"/>
		</g>
		<g>
			<path class="st38" d="M650,122.4c192.5,0,192.5,520,385,520"/>
		</g>
		<g>
			<path class="st28" d="M650,809.2c192.5,0,192.5-8.4,385-8.4"/>
		</g>
		<g>
			<path class="st39" d="M650,913.9c192.5,0,192.5-428,385-428"/>
		</g>
		<g>
			<path class="st40" d="M650,244.1c192.5,0,192.5,723.2,385,723.2"/>
		</g>
		<g>
			<path class="st37" d="M650,1003.5c192.5,0,192.5,37.5,385,37.5"/>
		</g>
		<g>
			<path class="st41" d="M650,269c192.5,0,192.5,702.3,385,702.3"/>
		</g>
		<g>
			<path class="st42" d="M650,480.3c192.5,0,192.5,253.7,385,253.7"/>
		</g>
		<g>
			<path class="st43" d="M650,523.2c192.5,0,192.5,216.8,385,216.8"/>
		</g>
		<g>
			<path class="st44" d="M650,789.3c192.5,0,192.5-123,385-123"/>
		</g>
		<g>
			<path class="st45" d="M650,961.7c192.5,0,192.5-148.9,385-148.9"/>
		</g>
		<g>
			<path class="st33" d="M650,702.6c192.5,0,192.5,92.3,385,92.3"/>
		</g>
		<g>
			<path class="st41" d="M650,257c192.5,0,192.5,348.4,385,348.4"/>
		</g>
		<g>
			<path class="st46" d="M650,289.9c192.5,0,192.5,319.5,385,319.5"/>
		</g>
		<g>
			<path class="st47" d="M650,943.7c192.5,0,192.5-226.6,385-226.6"/>
		</g>
		<g>
			<path class="st48" d="M650,678.7c192.5,0,192.5,26.5,385,26.5"/>
		</g>
		<g>
			<path class="st49" d="M650,866c192.5,0,192.5-754.2,385-754.2"/>
		</g>
		<g>
			<path class="st50" d="M650,78.5c192.5,0,192.5,124.2,385,124.2"/>
		</g>
		<g>
			<path class="st51" d="M650,617.9c192.5,0,192.5,391.3,385,391.3"/>
		</g>
		<g>
			<path class="st52" d="M650,198.2c192.5,0,192.5,761.1,385,761.1"/>
		</g>
		<g>
			<path class="st53" d="M650,544.1c192.5,0,192.5-419.3,385-419.3"/>
		</g>
		<g>
			<path class="st47" d="M650,884c192.5,0,192.5-561.6,385-561.6"/>
		</g>
		<g>
			<path class="st28" d="M650,753.4c192.5,0,192.5-437.1,385-437.1"/>
		</g>
		<g>
			<path class="st40" d="M650,240.1c192.5,0,192.5,650.5,385,650.5"/>
		</g>
		<g>
			<path class="st51" d="M650,578c192.5,0,192.5-36.3,385-36.3"/>
		</g>
		<g>
			<path class="st38" d="M650,118.4c192.5,0,192.5,483.1,385,483.1"/>
		</g>
		<g>
			<path class="st46" d="M650,282c192.5,0,192.5-62.4,385-62.4"/>
		</g>
		<g>
			<path class="st36" d="M650,173.3c192.5,0,192.5,205.9,385,205.9"/>
		</g>
		<g>
			<path class="st41" d="M650,265c192.5,0,192.5,568.7,385,568.7"/>
		</g>
		<g>
			<path class="st27" d="M650,660.7c192.5,0,192.5-72.2,385-72.2"/>
		</g>
		<g>
			<path class="st52" d="M650,194.2c192.5,0,192.5,635.5,385,635.5"/>
		</g>
		<g>
			<path class="st30" d="M650,396.6c192.5,0,192.5,594.6,385,594.6"/>
		</g>
		<g>
			<path class="st27" d="M650,644.8c192.5,0,192.5-245.7,385-245.7"/>
		</g>
		<g>
			<path class="st49" d="M650,933.8c192.5,0,192.5-378.2,385-378.2"/>
		</g>
		<g>
			<path class="st54" d="M650,139.4c192.5,0,192.5,392.4,385,392.4"/>
		</g>
		<g>
			<path class="st49" d="M650,901.9c192.5,0,192.5-473.9,385-473.9"/>
		</g>
		<g>
			<path class="st49" d="M650,874c192.5,0,192.5-663.4,385-663.4"/>
		</g>
		<g>
			<path class="st55" d="M650,188.2c192.5,0,192.5,378.4,385,378.4"/>
		</g>
		<g>
			<path class="st56" d="M650,302.9c192.5,0,192.5-182.1,385-182.1"/>
		</g>
		<g>
			<path class="st54" d="M650,131.4c192.5,0,192.5,160,385,160"/>
		</g>
		<g>
			<path class="st51" d="M650,597.9c192.5,0,192.5,188.9,385,188.9"/>
		</g>
		<g>
			<path class="st27" d="M650,628.9C842.5,628.9,842.5,41,1035,41"/>
		</g>
		<g>
			<path class="st57" d="M650,156.3c192.5,0,192.5,799,385,799"/>
		</g>
		<g>
			<path class="st49" d="M650,862c192.5,0,192.5-763.2,385-763.2"/>
		</g>
		<g>
			<path class="st27" d="M650,668.7c192.5,0,192.5-14.4,385-14.4"/>
		</g>
		<g>
			<path class="st46" d="M650,293.9c192.5,0,192.5,600.6,385,600.6"/>
		</g>
		<g>
			<path class="st58" d="M650,509.3c192.5,0,192.5-120.1,385-120.1"/>
		</g>
		<g>
			<path class="st43" d="M650,499.3c192.5,0,192.5-220.8,385-220.8"/>
		</g>
		<g>
			<path class="st40" d="M650,236.1c192.5,0,192.5,410.3,385,410.3"/>
		</g>
		<g>
			<path class="st49" d="M650,949.7c192.5,0,192.5-181.8,385-181.8"/>
		</g>
		<g>
			<path class="st59" d="M650,219.1c192.5,0,192.5,744.2,385,744.2"/>
		</g>
		<g>
			<path class="st28" d="M650,761.4c192.5,0,192.5-308.4,385-308.4"/>
		</g>
		<g>
			<path class="st27" d="M650,632.8C842.5,632.8,842.5,50,1035,50"/>
		</g>
		<g>
			<path class="st36" d="M650,169.3c192.5,0,192.5,143.1,385,143.1"/>
		</g>
		<g>
			<path class="st43" d="M650,535.2c192.5,0,192.5,468,385,468"/>
		</g>
		<g>
			<path class="st60" d="M650,417.6c192.5,0,192.5,93.2,385,93.2"/>
		</g>
		<g>
			<path class="st31" d="M650,847.1c192.5,0,192.5,182,385,182"/>
		</g>
		<g>
			<path class="st51" d="M650,586c192.5,0,192.5-3.4,385-3.4"/>
		</g>
		<g>
			<path class="st61" d="M650,692.6c192.5,0,192.5,59.4,385,59.4"/>
		</g>
		<g>
			<path class="st39" d="M650,925.8c192.5,0,192.5-407.1,385-407.1"/>
		</g>
		<g>
			<path class="st43" d="M650,531.2c192.5,0,192.5,375.3,385,375.3"/>
		</g>
		<g>
			<path class="st59" d="M650,207.2C842.5,207.2,842.5,59,1035,59"/>
		</g>
		<g>
			<path class="st62" d="M650,349.8c192.5,0,192.5,550.8,385,550.8"/>
		</g>
		<g>
			<path class="st63" d="M650,607.9c192.5,0,192.5,306.6,385,306.6"/>
		</g>
		<g>
			<path class="st30" d="M650,368.7c192.5,0,192.5-260.8,385-260.8"/>
		</g>
		<g>
			<path class="st34" d="M650,427.5c192.5,0,192.5,147.1,385,147.1"/>
		</g>
		<g>
			<path class="st27" d="M650,708.6c192.5,0,192.5,133.2,385,133.2"/>
		</g>
		<g>
			<path class="st64" d="M650,486.3c192.5,0,192.5,294.6,385,294.6"/>
		</g>
		<g>
			<path class="st61" d="M650,720.5c192.5,0,192.5,298.6,385,298.6"/>
		</g>
		<g>
			<path class="st64" d="M650,458.4c192.5,0,192.5-213.9,385-213.9"/>
		</g>
		<g>
			<path class="st34" d="M650,411.6c192.5,0,192.5,31.4,385,31.4"/>
		</g>
		<g>
			<path class="st42" d="M650,472.4c192.5,0,192.5,216.8,385,216.8"/>
		</g>
		<g>
			<path class="st46" d="M650,286c192.5,0,192.5,220.8,385,220.8"/>
		</g>
		<g>
			<path class="st39" d="M650,893.9c192.5,0,192.5-527.7,385-527.7"/>
		</g>
		<g>
			<path class="st28" d="M650,773.3c192.5,0,192.5-180.8,385-180.8"/>
		</g>
		<g>
			<path class="st49" d="M650,937.8c192.5,0,192.5-304.4,385-304.4"/>
		</g>
		<g>
			<path class="st28" d="M650,765.4c192.5,0,192.5-287.5,385-287.5"/>
		</g>
		<g>
			<path class="st53" d="M650,548.1c192.5,0,192.5-324.5,385-324.5"/>
		</g>
		<g>
			<path class="st27" d="M650,640.8c192.5,0,192.5-413.2,385-413.2"/>
		</g>
		<g>
			<path class="st65" d="M650,355.7c192.5,0,192.5,631.5,385,631.5"/>
		</g>
		<g>
			<path class="st66" d="M650,87.5c192.5,0,192.5,863.9,385,863.9"/>
		</g>
		<g>
			<path class="st43" d="M650,527.2c192.5,0,192.5,310.5,385,310.5"/>
		</g>
		<g>
			<path class="st42" d="M650,464.4c192.5,0,192.5,155,385,155"/>
		</g>
		<g>
			<path class="st59" d="M650,215.2c192.5,0,192.5,80.3,385,80.3"/>
		</g>
		<g>
			<path class="st67" d="M650,96.5c192.5,0,192.5,257.8,385,257.8"/>
		</g>
		<g>
			<path class="st27" d="M650,636.8c192.5,0,192.5-451.1,385-451.1"/>
		</g>
		<g>
			<path class="st49" d="M650,878c192.5,0,192.5-574.6,385-574.6"/>
		</g>
		<g>
			<path class="st47" d="M650,975.6c192.5,0,192.5-100,385-100"/>
		</g>
		<g>
			<path class="st40" d="M650,232.1c192.5,0,192.5,126.1,385,126.1"/>
		</g>
		<g>
			<path class="st60" d="M650,405.6c192.5,0,192.5-198.9,385-198.9"/>
		</g>
		<g>
			<path class="st43" d="M650,495.3c192.5,0,192.5-233.8,385-233.8"/>
		</g>
		<g>
			<path class="st59" d="M650,211.2C842.5,211.2,842.5,68,1035,68"/>
		</g>
		<g>
			<path class="st30" d="M650,384.7c192.5,0,192.5,31.4,385,31.4"/>
		</g>
		<g>
			<path class="st27" d="M650,656.8c192.5,0,192.5-109.1,385-109.1"/>
		</g>
		<g>
			<path class="st62" d="M650,333.8c192.5,0,192.5-95.3,385-95.3"/>
		</g>
		<g>
			<path class="st30" d="M650,380.7c192.5,0,192.5-123.2,385-123.2"/>
		</g>
		<g>
			<path class="st49" d="M650,905.9c192.5,0,192.5-448.9,385-448.9"/>
		</g>
		<g>
			<path class="st41" d="M650,253.1c192.5,0,192.5,0.5,385,0.5"/>
		</g>
		<g>
			<path class="st64" d="M650,450.4c192.5,0,192.5-312.6,385-312.6"/>
		</g>
		<g>
			<path class="st60" d="M650,421.5c192.5,0,192.5,114.2,385,114.2"/>
		</g>
		<g>
			<path class="st28" d="M650,745.4c192.5,0,192.5-463,385-463"/>
		</g>
		<g>
			<path class="st28" d="M650,841.1c192.5,0,192.5,85.3,385,85.3"/>
		</g>
		<g>
			<path class="st51" d="M650,562.1c192.5,0,192.5-140,385-140"/>
		</g>
		<g>
			<path class="st40" d="M650,228.1c192.5,0,192.5,46.3,385,46.3"/>
		</g>
		<g>
			<path class="st56" d="M650,306.9c192.5,0,192.5,101.2,385,101.2"/>
		</g>
		<g>
			<path class="st49" d="M650,870c192.5,0,192.5-719.2,385-719.2"/>
		</g>
		<g>
			<path class="st43" d="M650,519.2c192.5,0,192.5,176,385,176"/>
		</g>
		<g>
			<path class="st41" d="M650,261c192.5,0,192.5,389.3,385,389.3"/>
		</g>
		<g>
			<path class="st28" d="M650,757.4c192.5,0,192.5-412.1,385-412.1"/>
		</g>
		<g>
			<path class="st51" d="M650,554.1c192.5,0,192.5-214.8,385-214.8"/>
		</g>
		<g>
			<path class="st65" d="M650,343.8c192.5,0,192.5,339.5,385,339.5"/>
		</g>
		<g>
			<path class="st60" d="M650,433.5c192.5,0,192.5,294.6,385,294.6"/>
		</g>
		<g>
			<path class="st53" d="M650,572c192.5,0,192.5-106.1,385-106.1"/>
		</g>
		<g>
			<path class="st57" d="M650,148.3c192.5,0,192.5-14.5,385-14.5"/>
		</g>
		<g>
			<path class="st46" d="M650,278c192.5,0,192.5-118.2,385-118.2"/>
		</g>
		<g>
			<path class="st36" d="M650,165.3c192.5,0,192.5,7.4,385,7.4"/>
		</g>
		<g>
			<path class="st30" d="M650,372.7c192.5,0,192.5-208.9,385-208.9"/>
		</g>
		<g>
			<path class="st57" d="M650,152.3c192.5,0,192.5,181,385,181"/>
		</g>
		<g>
			<path class="st30" d="M650,388.6c192.5,0,192.5,48.4,385,48.4"/>
		</g>
		<g>
			<path class="st54" d="M650,135.4c192.5,0,192.5,367.4,385,367.4"/>
		</g>
		<g>
			<path class="st53" d="M650,568.1c192.5,0,192.5-119.1,385-119.1"/>
		</g>
		<g>
			<path class="st56" d="M650,310.9c192.5,0,192.5,466.1,385,466.1"/>
		</g>
		<g>
			<path class="st30" d="M650,364.7c192.5,0,192.5-287.8,385-287.8"/>
		</g>
		<g>
			<path class="st49" d="M650,858.1C842.5,858.1,842.5,86,1035,86"/>
		</g>
		<g>
			<path class="st65" d="M650,339.8c192.5,0,192.5,72.3,385,72.3"/>
		</g>
		<g>
			<path class="st64" d="M650,454.4c192.5,0,192.5-307.6,385-307.6"/>
		</g>
		<g>
			<path class="st53" d="M650,592c192.5,0,192.5,152,385,152"/>
		</g>
		<g>
			<path class="st28" d="M650,769.4c192.5,0,192.5-217.7,385-217.7"/>
		</g>
		<g>
			<path class="st30" d="M650,376.7c192.5,0,192.5-200,385-200"/>
		</g>
	</g>
</g>
<g>
	<rect x="645" y="76.5" width="5" height="4"/>
	<rect x="645" y="85.5" width="5" height="4"/>
	<rect x="645" y="94.5" width="5" height="4"/>
	<rect x="1035" y="39" width="5" height="4"/>
	<rect x="1035" y="48" width="5" height="4"/>
	<rect x="1035" y="57" width="5" height="4"/>
	<rect x="1035" y="66" width="5" height="4"/>
	<rect x="1035" y="74.9" width="5" height="4"/>
	<rect x="1035" y="83.9" width="5" height="4"/>
	<rect x="645" y="103.5" width="5" height="8"/>
	<rect x="645" y="116.4" width="5" height="8"/>
	<rect x="1035" y="92.9" width="5" height="8"/>
	<rect x="1035" y="105.9" width="5" height="8"/>
	<rect x="1035" y="118.9" width="5" height="8"/>
	<rect x="1035" y="131.8" width="5" height="8"/>
	<rect x="1035" y="144.8" width="5" height="8"/>
	<rect x="1035" y="157.8" width="5" height="8"/>
	<rect x="1035" y="170.7" width="5" height="8"/>
	<rect x="645" y="129.4" width="5" height="12"/>
	<rect x="645" y="146.4" width="5" height="12"/>
	<rect x="1035" y="183.7" width="5" height="12"/>
	<rect x="1035" y="200.7" width="5" height="12"/>
	<rect x="1035" y="217.6" width="5" height="12"/>
	<rect x="1035" y="234.6" width="5" height="12"/>
	<rect x="1035" y="251.5" width="5" height="12"/>
	<rect x="645" y="163.3" width="5" height="15.9"/>
	<rect x="645" y="184.3" width="5" height="15.9"/>
	<rect x="645" y="205.2" width="5" height="15.9"/>
	<rect x="1035" y="268.5" width="5" height="15.9"/>
	<rect x="1035" y="289.4" width="5" height="15.9"/>
	<rect x="1035" y="310.4" width="5" height="15.9"/>
	<rect x="1035" y="331.3" width="5" height="15.9"/>
	<rect x="645" y="226.1" width="5" height="19.9"/>
	<rect x="645" y="251.1" width="5" height="19.9"/>
	<rect x="645" y="276" width="5" height="19.9"/>
	<rect x="1035" y="352.3" width="5" height="19.9"/>
	<rect x="645" y="300.9" width="5" height="23.9"/>
	<rect x="1035" y="377.2" width="5" height="23.9"/>
	<rect x="1035" y="406.1" width="5" height="23.9"/>
	<rect x="1035" y="435" width="5" height="23.9"/>
	<rect x="645" y="329.8" width="5" height="27.9"/>
	<rect x="1035" y="463.9" width="5" height="27.9"/>
	<rect x="1035" y="496.8" width="5" height="27.9"/>
	<rect x="1035" y="529.7" width="5" height="27.9"/>
	<rect x="1035" y="562.6" width="5" height="31.9"/>
	<rect x="645" y="362.7" width="5" height="35.9"/>
	<rect x="255" y="119" width="5" height="35.9"/>
	<rect x="1035" y="599.5" width="5" height="35.9"/>
	<rect x="1035" y="640.4" width="5" height="35.9"/>
	<rect x="645" y="403.6" width="5" height="39.9"/>
	<rect x="645" y="448.5" width="5" height="39.9"/>
	<rect x="1035" y="681.2" width="5" height="39.9"/>
	<rect x="255" y="159.9" width="5" height="43.8"/>
	<rect x="645" y="493.3" width="5" height="43.8"/>
	<rect x="1035" y="726.1" width="5" height="43.8"/>
	<rect x="1035" y="774.9" width="5" height="47.8"/>
	<rect x="1035" y="827.8" width="5" height="51.8"/>
	<rect x="255" y="208.7" width="5" height="59.8"/>
	<rect x="1035" y="884.6" width="5" height="59.8"/>
	<rect x="255" y="273.5" width="5" height="75.7"/>
	<rect x="645" y="542.2" width="5" height="79.7"/>
	<rect x="645" y="626.9" width="5" height="99.6"/>
	<rect x="1035" y="949.4" width="5" height="99.6"/>
	<rect x="645" y="731.5" width="5" height="119.6"/>
	<rect x="645" y="856.1" width="5" height="155.4"/>
	<rect x="255" y="354.2" width="5" height="279"/>
	<rect x="255" y="638.2" width="5" height="330.8"/>
</g>
<text transform="matrix(1 0 0 1 654 77.9738)" class="st68 st69">4.7</text>
<text transform="matrix(1 0 0 1 654 86.9593)" class="st68 st69">5.4</text>
<text transform="matrix(1 0 0 1 654 95.9448)" class="st68 st69">6.6</text>
<text transform="matrix(1 0 0 1 1049.0797 43.4615)" class="st68 st69">Santibañez Boric, Mónica</text>
<text transform="matrix(1 0 0 1 1049.0801 52.6792)" class="st68 st69">Ruiz Balart, Macarena</text>
<text transform="matrix(1 0 0 1 1048.1659 60.9515)" class="st68 st69">Stange Marcus, Hans</text>
<text transform="matrix(1 0 0 1 1048.1659 70.4182)" class="st68 st69">Molina Oyarzún, Raúl</text>
<text transform="matrix(1 0 0 1 1047.8158 79.4036)" class="st68 st69">Silva Roquefort, Rebeca</text>
<text transform="matrix(1 0 0 1 1048.3698 89.4661)" class="st68 st69">Mora Briones, Alfredo</text>
<text transform="matrix(1 0 0 1 654 106.923)" class="st68 st69">5.9</text>
<text transform="matrix(1 0 0 1 654 119.894)" class="st68 st69">5.2</text>
<text transform="matrix(1 0 0 1 1047.8158 100.8793)" class="st68 st69">Vico Sánchez, Mauricio</text>
<text transform="matrix(1 0 0 1 1049.5781 113.4154)" class="st68 st69">Perelli Soto, Bruno</text>
<text transform="matrix(1 0 0 1 1048.8081 124.3935)" class="st68 st69">Lepe Muñoz, Juan Carlos</text>
<text transform="matrix(1 0 0 1 1051.3428 137.6804)" class="st68 st69">Perea Morales, René</text>
<text transform="matrix(1 0 0 1 1048.7417 151.4578)" class="st68 st69">Méndez Olivares, Iván</text>
<text transform="matrix(1 0 0 1 1048.0117 162.8293)" class="st68 st69">Benavides Bermúdez, Paola</text>
<text transform="matrix(1 0 0 1 1048.7412 177.3121)" class="st68 st69">Jove Avilés, Trinidad</text>
<text transform="matrix(1 0 0 1 654 134.8578)" class="st68 st69">6.1</text>
<text transform="matrix(1 0 0 1 654 151.8143)" class="st68 st69">4.6</text>
<text transform="matrix(1 0 0 1 1048.7422 192.2758)" class="st68 st69">Gómez Moya, Cristián</text>
<text transform="matrix(1 0 0 1 1049.2212 207.783)" class="st68 st69">Reyes León, Daniel</text>
<text transform="matrix(1 0 0 1 1048.5972 227.5869)" class="st68 st69">Zorzano Betancourt, Osvaldo</text>
<text transform="matrix(1 0 0 1 1051.4473 246.5363)" class="st68 st69">Maldonado de la Fuente, Felix</text>
<text transform="matrix(1 0 0 1 1050.7173 257.9955)" class="st68 st69">Pradenas Guentherodt, Gabriela</text>
<text transform="matrix(1 0 0 1 654 170.7636)" class="st68 st69">5.6</text>
<text transform="matrix(1 0 0 1 654 191.7056)" class="st68 st69">5.3</text>
<text transform="matrix(1 0 0 1 654 212.6477)" class="st68 st69">4.8</text>
<text transform="matrix(1 0 0 1 1051.1694 274.231)" class="st68 st69">Tapia Reyes, Mauricio</text>
<text transform="matrix(1 0 0 1 1052.1509 296.6848)" class="st68 st69">Lares López, Lorna</text>
<text transform="matrix(1 0 0 1 1049.2832 319.3475)" class="st68 st69">Nuñez Gutiérrez, Pablo</text>
<text transform="matrix(1 0 0 1 1049.2832 337.0832)" class="st68 st69">Marín Pacheco, Antonio</text>
<text transform="matrix(1 0 0 1 654 235.5825)" class="st68 st69">6.8</text>
<text transform="matrix(1 0 0 1 654 260.51)" class="st68 st69">6.7</text>
<text transform="matrix(1 0 0 1 654 285.4375)" class="st68 st69">5.7</text>
<text transform="matrix(1 0 0 1 1049.2837 359.5109)" class="st68 st69">Pagueguy Fenner, Sebastián</text>
<text transform="matrix(1 0 0 1 654 312.3578)" class="st68 st69">4</text>
<text transform="matrix(1 0 0 1 1049.6577 389.145)" class="st68 st69">Gatica Ramírez, Pamela</text>
<text transform="matrix(1 0 0 1 1048.5972 421.5361)" class="st68 st69">Morales Mujica, María Paz</text>
<text transform="matrix(1 0 0 1 1050.7173 449.1992)" class="st68 st69">Young Araya, Mariana</text>
<text transform="matrix(1 0 0 1 654 343.2636)" class="st68 st69">6.2</text>
<text transform="matrix(1 0 0 1 1049.3271 478.6194)" class="st68 st69">Osses Flores, Roberto</text>
<text transform="matrix(1 0 0 1 1048.5972 511.2463)" class="st68 st69">Donoso Cisternas, Sergio</text>
<text transform="matrix(1 0 0 1 1049.5176 544.1549)" class="st68 st69">De la Sotta Lazzerini, Paola</text>
<text transform="matrix(1 0 0 1 1048.5972 579.0463)" class="st68 st69">Soto Calquín, Leonardo</text>
<text transform="matrix(1 0 0 1 654 380.1476)" class="st68 st69">5</text>
<text transform="matrix(1 0 0 1 1050.2476 617.0618)" class="st68 st69">Cortez Orellana, Felipe</text>
<text transform="matrix(1 0 0 1 1050.0938 658.7926)" class="st68 st69">Castillo Espinoza, Eduardo</text>
<text transform="matrix(1 0 0 1 654 423.01)" class="st68 st69">4.5</text>
<text transform="matrix(1 0 0 1 654 467.8651)" class="st68 st69">6.3</text>
<text transform="matrix(1 0 0 1 1050.5635 705.9562)" class="st68 st69">Abud Carrillo, Jenny</text>
<text transform="matrix(1 0 0 1 654 514.7129)" class="st68 st69">5.8</text>
<text transform="matrix(1 0 0 1 1050.2476 748.5027)" class="st68 st69">Wechsler Pizarro, Andrea</text>
<text transform="matrix(1 0 0 1 1047.8672 799.3361)" class="st68 st69">Dueñas Santander, Rodrigo</text>
<text transform="matrix(1 0 0 1 1048.5967 860.1004)" class="st68 st69">Jacob Dazarola, Rubén</text>
<text transform="matrix(1 0 0 1 1048.5967 915.4998)" class="st68 st69">Ode Saleh, Verónica</text>
<text transform="matrix(1 0 0 1 654 581.4883)" class="st68 st69">5.5</text>
<text transform="matrix(1 0 0 1 654 676.1622)" class="st68 st69">6.5</text>
<text transform="matrix(1 0 0 1 1048.5972 997.2001)" class="st68 st69">Domínguez González, Pablo</text>
<text transform="matrix(1 0 0 1 654 790.7636)" class="st68 st69">7</text>
<text transform="matrix(1 0 0 1 654 933.2636)" class="st68 st69">6</text>
<g>
	<text transform="matrix(1 0 0 1 606.1611 55.2163)" class="st70 st68 st71">nota_proyecto</text>
	<text transform="matrix(1 0 0 1 1006.8311 17.7163)" class="st70 st68 st71">profe_guia</text>
	<text transform="matrix(1 0 0 1 207.167 97.7163)" class="st70 st68 st71">titulo_profesional</text>
</g>
<text transform="matrix(1 0 0 1 189.6919 137.6804)" class="st68 st69">Diseñador</text>
<text transform="matrix(1 0 0 1 17.2926 189.7001)" class="st68 st69">Diseñador con mención Industrial y Servicios</text>
<text transform="matrix(1 0 0 1 183.3467 238.3)" class="st68 st69">Diseñadora</text>
<text transform="matrix(1 0 0 1 16.9277 314.1573)" class="st68 st69">Diseñador con mención en Visualidad y Medios</text>
<text transform="matrix(1 0 0 1 16.3801 493.1407)" class="st68 st69">Diseñadora con mención Industrial y Servicios</text>
<text transform="matrix(1 0 0 1 16.5624 803.8174)" class="st68 st69">Diseñadora con mención en Visualidad y Medios</text>
</svg>
