<?xml version="1.0" encoding="utf-8"?>
<!-- Generator: Adobe Illustrator 28.1.0, SVG Export Plug-In . SVG Version: 6.00 Build 0)  -->
<svg version="1.1" id="Layer_1" xmlns="http://www.w3.org/2000/svg" xmlns:xlink="http://www.w3.org/1999/xlink" x="0px" y="0px"
	 viewBox="0 0 837.5 678.5" style="enable-background:new 0 0 837.5 678.5;" xml:space="preserve">
<style type="text/css">
	.st0{fill:none;stroke:#000000;}
	.st1{font-family:'ArialMT';}
	.st2{font-size:10px;}
	.st3{fill:#7B7B7B;}
	.st4{font-family:'Arial-BoldMT';}
	.st5{font-size:12px;}
	.st6{fill:none;stroke:#9F28C4;stroke-dasharray:4;}
	.st7{fill:none;stroke:#9F28C4;}
	.st8{fill:#9F28C4;}
	.st9{fill:none;stroke:#FFFFFF;}
	.st10{fill:#FFFFFF;stroke:#9F28C4;}
	.st11{fill:none;stroke:#E80440;stroke-dasharray:4;}
	.st12{fill:none;stroke:#E80440;}
	.st13{fill:#E80440;}
	.st14{fill:none;stroke:#FC8509;stroke-dasharray:4;}
	.st15{fill:none;stroke:#FC8509;}
	.st16{fill:#FC8509;}
	.st17{fill:#FFFFFF;stroke:#FC8509;}
	.st18{fill:none;stroke:#F5B923;stroke-dasharray:4;}
	.st19{fill:none;stroke:#F5B923;}
	.st20{fill:#F5B923;}
	.st21{fill:none;stroke:#90D247;stroke-dasharray:4;}
	.st22{fill:none;stroke:#90D247;}
	.st23{fill:#90D247;}
	.st24{fill:#FFFFFF;stroke:#90D247;}
	.st25{fill:none;stroke:#4A90E2;stroke-dasharray:4;}
	.st26{fill:none;stroke:#4A90E2;}
	.st27{fill:#4A90E2;}
</style>
<path class="st0" d="M52.5,593.4H59v-560h-6.5"/>
<g transform="translate(0,560.5)">
	<line class="st0" x1="58.5" y1="32.9" x2="52.5" y2="32.9"/>
	<text transform="matrix(1 0 0 1 35.5986 36.1297)" class="st1 st2">4.0</text>
</g>
<g transform="translate(0,523.1666666666666)">
	<line class="st0" x1="58.5" y1="32.9" x2="52.5" y2="32.9"/>
	<text transform="matrix(1 0 0 1 35.5986 36.1297)" class="st1 st2">4.2</text>
</g>
<g transform="translate(0,485.8333333333333)">
	<line class="st0" x1="58.5" y1="32.9" x2="52.5" y2="32.9"/>
	<text transform="matrix(1 0 0 1 35.5986 36.1297)" class="st1 st2">4.4</text>
</g>
<g transform="translate(0,448.5000000000001)">
	<line class="st0" x1="58.5" y1="32.9" x2="52.5" y2="32.9"/>
	<text transform="matrix(1 0 0 1 35.5986 36.1297)" class="st1 st2">4.6</text>
</g>
<g transform="translate(0,411.1666666666667)">
	<line class="st0" x1="58.5" y1="32.9" x2="52.5" y2="32.9"/>
	<text transform="matrix(1 0 0 1 35.5986 36.1297)" class="st1 st2">4.8</text>
</g>
<g transform="translate(0,373.83333333333337)">
	<line class="st0" x1="58.5" y1="32.9" x2="52.5" y2="32.9"/>
	<text transform="matrix(1 0 0 1 35.5986 36.1297)" class="st1 st2">5.0</text>
</g>
<g transform="translate(0,336.49999999999994)">
	<line class="st0" x1="58.5" y1="32.9" x2="52.5" y2="32.9"/>
	<text transform="matrix(1 0 0 1 35.5986 36.1297)" class="st1 st2">5.2</text>
</g>
<g transform="translate(0,299.16666666666663)">
	<line class="st0" x1="58.5" y1="32.9" x2="52.5" y2="32.9"/>
	<text transform="matrix(1 0 0 1 35.5986 36.1297)" class="st1 st2">5.4</text>
</g>
<g transform="translate(0,261.83333333333337)">
	<line class="st0" x1="58.5" y1="32.9" x2="52.5" y2="32.9"/>
	<text transform="matrix(1 0 0 1 35.5986 36.1297)" class="st1 st2">5.6</text>
</g>
<g transform="translate(0,224.5)">
	<line class="st0" x1="58.5" y1="32.9" x2="52.5" y2="32.9"/>
	<text transform="matrix(1 0 0 1 35.5986 36.1297)" class="st1 st2">5.8</text>
</g>
<g transform="translate(0,187.16666666666669)">
	<line class="st0" x1="58.5" y1="32.9" x2="52.5" y2="32.9"/>
	<text transform="matrix(1 0 0 1 35.5986 36.1297)" class="st1 st2">6.0</text>
</g>
<g transform="translate(0,149.83333333333331)">
	<line class="st0" x1="58.5" y1="32.9" x2="52.5" y2="32.9"/>
	<text transform="matrix(1 0 0 1 35.5986 36.1297)" class="st1 st2">6.2</text>
</g>
<g transform="translate(0,112.49999999999991)">
	<line class="st0" x1="58.5" y1="32.9" x2="52.5" y2="32.9"/>
	<text transform="matrix(1 0 0 1 35.5986 36.1297)" class="st1 st2">6.4</text>
</g>
<g transform="translate(0,75.16666666666671)">
	<line class="st0" x1="58.5" y1="32.9" x2="52.5" y2="32.9"/>
	<text transform="matrix(1 0 0 1 35.5986 36.1297)" class="st1 st2">6.6</text>
</g>
<g transform="translate(0,37.833333333333385)">
	<line class="st0" x1="58.5" y1="32.9" x2="52.5" y2="32.9"/>
	<text transform="matrix(1 0 0 1 35.5986 36.1297)" class="st1 st2">6.8</text>
</g>
<g transform="translate(0,0.5)">
	<line class="st0" x1="58.5" y1="32.9" x2="52.5" y2="32.9"/>
	<text transform="matrix(1 0 0 1 35.5986 36.1296)" class="st1 st2">7.0</text>
</g>
<text transform="matrix(1 0 0 1 19.5 18.2246)" class="st3 st4 st5">nota_proyecto</text>
<path class="st0" d="M59,609.9v-5.5h745v5.5"/>
<line class="st0" x1="122" y1="604.4" x2="122" y2="611.9"/>
<text transform="matrix(1 0 0 1 13.9727 622.0297)" class="st1 st2">Diseñadora con mención en Visualidad y Medios</text>
<line class="st0" x1="246" y1="604.4" x2="246" y2="632.9"/>
<text transform="matrix(1 0 0 1 220.4287 643.0297)" class="st1 st2">Diseñadora</text>
<line class="st0" x1="370" y1="604.4" x2="370" y2="611.9"/>
<text transform="matrix(1 0 0 1 270.2319 622.0297)" class="st1 st2">Diseñador con mención Industrial y Servicios</text>
<line class="st0" x1="520" y1="604.9" x2="520" y2="638.9"/>
<text transform="matrix(1 0 0 1 417.4512 649.0297)" class="st1 st2">Diseñadora con mención Industrial y Servicios</text>
<line class="st0" x1="644" y1="604.4" x2="644" y2="611.9"/>
<text transform="matrix(1 0 0 1 541.7534 622.0297)" class="st1 st2">Diseñador con mención en Visualidad y Medios</text>
<line class="st0" x1="768" y1="603.9" x2="768" y2="640.9"/>
<text transform="matrix(1 0 0 1 745.2095 651.0297)" class="st1 st2">Diseñador</text>
<g>
	<line class="st6" x1="121.5" y1="32.9" x2="121.5" y2="569.6"/>
	<line class="st7" x1="111.5" y1="32.9" x2="131.5" y2="32.9"/>
	<line class="st7" x1="111.5" y1="569.6" x2="131.5" y2="569.6"/>
	<rect x="111.5" y="126.3" class="st8" width="20" height="177.3"/>
	<line class="st9" x1="111.5" y1="219.6" x2="131.5" y2="219.6"/>
	<circle class="st10" cx="121.5" cy="592.9" r="1"/>
	<circle class="st10" cx="121.5" cy="592.9" r="1"/>
</g>
<g>
	<line class="st11" x1="245.5" y1="32.9" x2="245.5" y2="499.6"/>
	<line class="st12" x1="235.5" y1="32.9" x2="255.5" y2="32.9"/>
	<line class="st12" x1="235.5" y1="499.6" x2="255.5" y2="499.6"/>
	<rect x="235.5" y="98.3" class="st13" width="20" height="186.7"/>
	<line class="st9" x1="235.5" y1="219.6" x2="255.5" y2="219.6"/>
</g>
<g>
	<line class="st14" x1="369.5" y1="74.9" x2="369.5" y2="410.9"/>
	<line class="st15" x1="359.5" y1="74.9" x2="379.5" y2="74.9"/>
	<line class="st15" x1="359.5" y1="410.9" x2="379.5" y2="410.9"/>
	<rect x="359.5" y="200.9" class="st16" width="20" height="84"/>
	<line class="st9" x1="359.5" y1="238.3" x2="379.5" y2="238.3"/>
	<circle class="st17" cx="369.5" cy="499.6" r="1"/>
	<circle class="st17" cx="369.5" cy="70.3" r="1"/>
</g>
<g>
	<line class="st18" x1="519.5" y1="32.9" x2="519.5" y2="592.9"/>
	<line class="st19" x1="509.5" y1="32.9" x2="529.5" y2="32.9"/>
	<line class="st19" x1="509.5" y1="592.9" x2="529.5" y2="592.9"/>
	<rect x="509.5" y="98.3" class="st20" width="20" height="214.7"/>
	<line class="st9" x1="509.5" y1="219.6" x2="529.5" y2="219.6"/>
</g>
<g>
	<line class="st21" x1="643.5" y1="126.3" x2="643.5" y2="452.9"/>
	<line class="st22" x1="633.5" y1="126.3" x2="653.5" y2="126.3"/>
	<line class="st22" x1="633.5" y1="452.9" x2="653.5" y2="452.9"/>
	<rect x="633.5" y="219.6" class="st23" width="20" height="93.3"/>
	<line class="st9" x1="633.5" y1="256.9" x2="653.5" y2="256.9"/>
	<circle class="st24" cx="643.5" cy="499.6" r="1"/>
	<circle class="st24" cx="643.5" cy="499.6" r="1"/>
	<circle class="st24" cx="643.5" cy="592.9" r="1"/>
</g>
<g>
	<line class="st25" x1="767.5" y1="32.9" x2="767.5" y2="462.3"/>
	<line class="st26" x1="757.5" y1="32.9" x2="777.5" y2="32.9"/>
	<line class="st26" x1="757.5" y1="462.3" x2="777.5" y2="462.3"/>
	<rect x="757.5" y="182.3" class="st27" width="20" height="130.7"/>
	<line class="st9" x1="757.5" y1="219.6" x2="777.5" y2="219.6"/>
</g>
<g>
	<text transform="matrix(1 0 0 1 135.5 32.9297)" class="st1 st2">7</text>
	<text transform="matrix(1 0 0 1 135.5 569.5964)" class="st1 st2">4.125</text>
	<text transform="matrix(1 0 0 1 135.5 219.5964)" class="st1 st2">6</text>
	<text transform="matrix(1 0 0 1 88.0371 303.5963)" class="st1 st2">5.55</text>
	<text transform="matrix(1 0 0 1 103.5986 126.263)" class="st1 st2">6.5</text>
</g>
<g>
	<text transform="matrix(1 0 0 1 259.5 32.9297)" class="st1 st2">7</text>
	<text transform="matrix(1 0 0 1 259.5 499.5963)" class="st1 st2">4.5</text>
	<text transform="matrix(1 0 0 1 259.5 219.5964)" class="st1 st2">6</text>
	<text transform="matrix(1 0 0 1 212.0371 284.9297)" class="st1 st2">5.65</text>
	<text transform="matrix(1 0 0 1 222.0371 98.263)" class="st1 st2">6.65</text>
</g>
<g>
	<text transform="matrix(1 0 0 1 383.5 74.9297)" class="st1 st2">6.774999999999999</text>
	<text transform="matrix(1 0 0 1 383.5 410.9297)" class="st1 st2">4.975000000000001</text>
	<text transform="matrix(1 0 0 1 383.5 238.263)" class="st1 st2">5.9</text>
	<text transform="matrix(1 0 0 1 336.0371 284.9297)" class="st1 st2">5.65</text>
	<text transform="matrix(1 0 0 1 351.5986 200.9297)" class="st1 st2">6.1</text>
</g>
<g>
	<text transform="matrix(1 0 0 1 533.5 32.9297)" class="st1 st2">7</text>
	<text transform="matrix(1 0 0 1 533.5 592.9297)" class="st1 st2">4</text>
	<text transform="matrix(1 0 0 1 533.5 219.5964)" class="st1 st2">6</text>
	<text transform="matrix(1 0 0 1 491.5986 312.9297)" class="st1 st2">5.5</text>
	<text transform="matrix(1 0 0 1 496.0371 98.263)" class="st1 st2">6.65</text>
</g>
<g>
	<text transform="matrix(1 0 0 1 657.5 126.263)" class="st1 st2">6.5</text>
	<text transform="matrix(1 0 0 1 657.5 452.9297)" class="st1 st2">4.75</text>
	<text transform="matrix(1 0 0 1 657.5 256.9297)" class="st1 st2">5.8</text>
	<text transform="matrix(1 0 0 1 615.5986 312.9297)" class="st1 st2">5.5</text>
	<text transform="matrix(1 0 0 1 633.9385 219.5964)" class="st1 st2">6</text>
</g>
<g>
	<text transform="matrix(1 0 0 1 781.5 32.9297)" class="st1 st2">7</text>
	<text transform="matrix(1 0 0 1 781.5 462.2631)" class="st1 st2">4.7</text>
	<text transform="matrix(1 0 0 1 781.5 219.5964)" class="st1 st2">6</text>
	<text transform="matrix(1 0 0 1 739.5986 312.9297)" class="st1 st2">5.5</text>
	<text transform="matrix(1 0 0 1 749.5986 182.263)" class="st1 st2">6.2</text>
</g>
<line class="st0" x1="59" y1="591.9" x2="59" y2="604.4"/>
</svg>
