<?xml version="1.0" encoding="utf-8"?>
<!-- Generator: Adobe Illustrator 28.1.0, SVG Export Plug-In . SVG Version: 6.00 Build 0)  -->
<svg version="1.1" id="Layer_1" xmlns="http://www.w3.org/2000/svg" xmlns:xlink="http://www.w3.org/1999/xlink" x="0px" y="0px"
	 viewBox="0 0 962 674" style="enable-background:new 0 0 962 674;" xml:space="preserve">
<style type="text/css">
	.st0{fill:#FFFFFF;}
	.st1{fill:#FF7F0E;}
	.st2{fill:#71A934;}
	.st3{fill:none;stroke:#000000;}
	.st4{font-family:'ArialMT';}
	.st5{font-size:10px;}
	.st6{fill:#7B7B7B;}
	.st7{font-family:'Arial-BoldMT';}
	.st8{font-size:12px;}
</style>
<rect id="background" x="12" y="28" class="st0" width="805" height="600"/>
<g id="Reprueban">
	<rect x="63" y="486.7" class="st1" width="105.3" height="121.3"/>
	<rect x="169.3" y="449.3" class="st1" width="105.3" height="158.7"/>
	<rect x="275.6" y="332.7" class="st1" width="105.3" height="275.3"/>
	<rect x="381.9" y="388.7" class="st1" width="105.3" height="219.3"/>
	<rect x="488.1" y="407.3" class="st1" width="105.3" height="200.7"/>
	<rect x="594.4" y="510" class="st1" width="105.3" height="98"/>
	<rect x="700.7" y="370" class="st1" width="105.3" height="238"/>
</g>
<g id="Aprueban">
	<rect x="63" y="472.7" class="st2" width="105.3" height="14"/>
	<rect x="169.3" y="402.7" class="st2" width="105.3" height="46.7"/>
	<rect x="275.6" y="281.3" class="st2" width="105.3" height="51.3"/>
	<rect x="381.9" y="295.3" class="st2" width="105.3" height="93.3"/>
	<rect x="488.1" y="150.7" class="st2" width="105.3" height="256.7"/>
	<rect x="594.4" y="328" class="st2" width="105.3" height="182"/>
	<rect x="700.7" y="48" class="st2" width="105.3" height="322"/>
</g>
<g id="xAxis" transform="translate(0,560)">
	<path class="st3" d="M62.5,48.5h745"/>
	<g transform="translate(53.642282650325555,0)">
		<line class="st3" x1="62" y1="48" x2="62" y2="54"/>
		<text transform="matrix(1 0 0 1 46.4311 64.1)" class="st4 st5">2021-2</text>
	</g>
	<g transform="translate(159.92818843355036,0)">
		<line class="st3" x1="62" y1="48" x2="62" y2="54"/>
		<text transform="matrix(1 0 0 1 46.4312 64.1)" class="st4 st5">2022-1</text>
	</g>
	<g transform="translate(266.21409421677515,0)">
		<line class="st3" x1="62" y1="48" x2="62" y2="54"/>
		<text transform="matrix(1 0 0 1 46.4312 64.1)" class="st4 st5">2022-2</text>
	</g>
	<g transform="translate(372.5,0)">
		<line class="st3" x1="62" y1="48" x2="62" y2="54"/>
		<text transform="matrix(1 0 0 1 46.4312 64.1)" class="st4 st5">2023-1</text>
	</g>
	<g transform="translate(478.7859057832248,0)">
		<line class="st3" x1="62" y1="48" x2="62" y2="54"/>
		<text transform="matrix(1 0 0 1 46.4311 64.1)" class="st4 st5">2023-2</text>
	</g>
	<g transform="translate(585.0718115664496,0)">
		<line class="st3" x1="62" y1="48" x2="62" y2="54"/>
		<text transform="matrix(1 0 0 1 46.4311 64.1)" class="st4 st5">2024-1</text>
	</g>
	<g transform="translate(691.3577173496744,0)">
		<line class="st3" x1="62" y1="48" x2="62" y2="54"/>
		<text transform="matrix(1 0 0 1 46.4311 64.1)" class="st4 st5">2024-2</text>
	</g>
</g>
<g id="yAxis">
	<path class="st3" d="M62.5,608.5v-560"/>
	<g transform="translate(0,560.5)">
		<line class="st3" x1="62" y1="48" x2="56" y2="48"/>
		<text transform="matrix(1 0 0 1 47.4385 51.2)" class="st4 st5">0</text>
	</g>
	<g transform="translate(0,513.8333333333333)">
		<line class="st3" x1="62" y1="48" x2="56" y2="48"/>
		<text transform="matrix(1 0 0 1 41.877 51.2)" class="st4 st5">10</text>
	</g>
	<g transform="translate(0,467.1666666666667)">
		<line class="st3" x1="62" y1="48" x2="56" y2="48"/>
		<text transform="matrix(1 0 0 1 41.877 51.2)" class="st4 st5">20</text>
	</g>
	<g transform="translate(0,420.5)">
		<line class="st3" x1="62" y1="48" x2="56" y2="48"/>
		<text transform="matrix(1 0 0 1 41.877 51.2)" class="st4 st5">30</text>
	</g>
	<g transform="translate(0,373.83333333333337)">
		<line class="st3" x1="62" y1="48" x2="56" y2="48"/>
		<text transform="matrix(1 0 0 1 41.877 51.2)" class="st4 st5">40</text>
	</g>
	<g transform="translate(0,327.16666666666663)">
		<line class="st3" x1="62" y1="48" x2="56" y2="48"/>
		<text transform="matrix(1 0 0 1 41.877 51.2)" class="st4 st5">50</text>
	</g>
	<g transform="translate(0,280.5)">
		<line class="st3" x1="62" y1="48" x2="56" y2="48"/>
		<text transform="matrix(1 0 0 1 41.877 51.2)" class="st4 st5">60</text>
	</g>
	<g transform="translate(0,233.83333333333331)">
		<line class="st3" x1="62" y1="48" x2="56" y2="48"/>
		<text transform="matrix(1 0 0 1 41.877 51.2)" class="st4 st5">70</text>
	</g>
	<g transform="translate(0,187.16666666666669)">
		<line class="st3" x1="62" y1="48" x2="56" y2="48"/>
		<text transform="matrix(1 0 0 1 41.877 51.2)" class="st4 st5">80</text>
	</g>
	<g transform="translate(0,140.5)">
		<line class="st3" x1="62" y1="48" x2="56" y2="48"/>
		<text transform="matrix(1 0 0 1 41.877 51.2)" class="st4 st5">90</text>
	</g>
	<g transform="translate(0,93.83333333333331)">
		<line class="st3" x1="62" y1="48" x2="56" y2="48"/>
		<text transform="matrix(1 0 0 1 36.3154 51.2)" class="st4 st5">100</text>
	</g>
	<g transform="translate(0,47.166666666666686)">
		<line class="st3" x1="62" y1="48" x2="56" y2="48"/>
		<text transform="matrix(1 0 0 1 37.0576 51.2)" class="st4 st5">110</text>
	</g>
	<g transform="translate(0,0.5)">
		<line class="st3" x1="62" y1="48" x2="56" y2="48"/>
		<text transform="matrix(1 0 0 1 36.3154 51.2)" class="st4 st5">120</text>
	</g>
</g>
<text transform="matrix(1 0 0 1 453.9824 658.6445)" class="st6 st7 st8">Semestre</text>
<text transform="matrix(1 0 0 1 31.998 28)" class="st6 st7 st8">Inscrites</text>
<text transform="matrix(1 0 0 1 862.5779 118.8691)" class="st6 st7 st8">Reprueban</text>
<text transform="matrix(1 0 0 1 863.4536 204.4873)" class="st6 st7 st8">Aprueban</text>
<rect x="863.5" y="48.5" class="st2" width="55.2" height="55.2"/>
<rect x="863.5" y="129.3" class="st1" width="55.2" height="55.2"/>
</svg>
